HIERARCHY
ROOT hip
{
  OFFSET 0 0 0
  CHANNELS 6 Xposition Yposition Zposition Zrotation Yrotation Xrotation
  JOINT abdomen
  {
    OFFSET 0 20.6881 -0.73152
    CHANNELS 3 Zrotation Xrotation Yrotation
    JOINT chest
    {
      OFFSET 0 11.7043 -0.48768
      CHANNELS 3 Zrotation Xrotation Yrotation
      JOINT neck
      {
        OFFSET 0 22.1894 -2.19456
        CHANNELS 3 Zrotation Xrotation Yrotation
        JOINT head
        {
          OFFSET -0.24384 7.07133 1.2192
          CHANNELS 3 Zrotation Xrotation Yrotation
          JOINT leftEye
          {
            OFFSET 4.14528 8.04674 8.04672
            CHANNELS 3 Zrotation Xrotation Yrotation
            End Site
            {
              OFFSET 1 0 0
            }
          }
          JOINT rightEye
          {
            OFFSET -3.6576 8.04674 8.04672
            CHANNELS 3 Zrotation Xrotation Yrotation
            End Site
            {
              OFFSET 1 0 0
            }
          }
        }
      }
      JOINT rCollar
      {
        OFFSET -2.68224 19.2634 -4.8768
        CHANNELS 3 Zrotation Xrotation Yrotation
        JOINT rShldr
        {
          OFFSET -8.77824 -1.95073 1.46304
          CHANNELS 3 Zrotation Xrotation Yrotation
          JOINT rForeArm
          {
            OFFSET -28.1742 -1.7115 0.48768
            CHANNELS 3 Zrotation Xrotation Yrotation
            JOINT rHand
            {
              OFFSET -22.5879 0.773209 7.07136
              CHANNELS 3 Zrotation Xrotation Yrotation
              JOINT rThumb1
              {
                OFFSET -1.2192 -0.487915 3.41376
                CHANNELS 3 Zrotation Xrotation Yrotation
                JOINT rThumb2
                {
                  OFFSET -3.37035 -0.52449 3.41376
                  CHANNELS 3 Zrotation Xrotation Yrotation
                  End Site
                  {
                    OFFSET -1.78271 -1.18214 1.43049
                  }
                }
              }
              JOINT rIndex1
              {
                OFFSET -7.75947 0.938293 5.60832
                CHANNELS 3 Zrotation Xrotation Yrotation
                JOINT rIndex2
                {
                  OFFSET -2.54057 -0.884171 1.56538
                  CHANNELS 3 Zrotation Xrotation Yrotation
                  End Site
                  {
                    OFFSET -1.62519 -0.234802 1.16502
                  }
                }
              }
              JOINT rMid1
              {
                OFFSET -8.24714 1.18213 3.41376
                CHANNELS 3 Zrotation Xrotation Yrotation
                JOINT rMid2
                {
                  OFFSET -3.10165 -0.590103 1.0647
                  CHANNELS 3 Zrotation Xrotation Yrotation
                  End Site
                  {
                    OFFSET -2.48547 -0.328903 0.83742
                  }
                }
              }
              JOINT rRing1
              {
                OFFSET -8.82822 0.546677 1.51678
                CHANNELS 3 Zrotation Xrotation Yrotation
                JOINT rRing2
                {
                  OFFSET -2.60934 -0.819778 -0.0198488
                  CHANNELS 3 Zrotation Xrotation Yrotation
                  End Site
                  {
                    OFFSET -2.33842 -0.294052 0.168128
                  }
                }
              }
              JOINT rPinky1
              {
                OFFSET -8.27202 -0.0477905 -0.4584
                CHANNELS 3 Zrotation Xrotation Yrotation
                JOINT rPinky2
                {
                  OFFSET -1.82734 -0.647385 -0.700984
                  CHANNELS 3 Zrotation Xrotation Yrotation
                  End Site
                  {
                    OFFSET -1.69225 -0.51767 -0.607171
                  }
                }
              }
            }
          }
        }
      }
      JOINT lCollar
      {
        OFFSET 2.68224 19.2634 -4.8768
        CHANNELS 3 Zrotation Xrotation Yrotation
        JOINT lShldr
        {
          OFFSET 8.77824 -1.95073 1.46304
          CHANNELS 3 Zrotation Xrotation Yrotation
          JOINT lForeArm
          {
            OFFSET 28.1742 -1.7115 0.48768
            CHANNELS 3 Zrotation Xrotation Yrotation
            JOINT lHand
            {
              OFFSET 22.5879 0.773209 7.07136
              CHANNELS 3 Zrotation Xrotation Yrotation
              JOINT lThumb1
              {
                OFFSET 1.2192 -0.487915 3.41376
                CHANNELS 3 Zrotation Xrotation Yrotation
                JOINT lThumb2
                {
                  OFFSET 3.37035 -0.52449 3.41376
                  CHANNELS 3 Zrotation Xrotation Yrotation
                  End Site
                  {
                    OFFSET 1.78271 -1.18214 1.43049
                  }
                }
              }
              JOINT lIndex1
              {
                OFFSET 7.75947 0.938293 5.60832
                CHANNELS 3 Zrotation Xrotation Yrotation
                JOINT lIndex2
                {
                  OFFSET 2.54057 -0.884171 1.56538
                  CHANNELS 3 Zrotation Xrotation Yrotation
                  End Site
                  {
                    OFFSET 1.62519 -0.234802 1.16502
                  }
                }
              }
              JOINT lMid1
              {
                OFFSET 8.24714 1.18213 3.41376
                CHANNELS 3 Zrotation Xrotation Yrotation
                JOINT lMid2
                {
                  OFFSET 3.10165 -0.590103 1.0647
                  CHANNELS 3 Zrotation Xrotation Yrotation
                  End Site
                  {
                    OFFSET 2.48547 -0.328903 0.83742
                  }
                }
              }
              JOINT lRing1
              {
                OFFSET 8.82822 0.546677 1.51678
                CHANNELS 3 Zrotation Xrotation Yrotation
                JOINT lRing2
                {
                  OFFSET 2.60934 -0.819778 -0.0198488
                  CHANNELS 3 Zrotation Xrotation Yrotation
                  End Site
                  {
                    OFFSET 2.33842 -0.294052 0.168128
                  }
                }
              }
              JOINT lPinky1
              {
                OFFSET 8.27202 -0.0477905 -0.4584
                CHANNELS 3 Zrotation Xrotation Yrotation
                JOINT lPinky2
                {
                  OFFSET 1.82734 -0.647385 -0.700984
                  CHANNELS 3 Zrotation Xrotation Yrotation
                  End Site
                  {
                    OFFSET 1.69225 -0.51767 -0.607171
                  }
                }
              }
            }
          }
        }
      }
    }
  }
  JOINT rButtock
  {
    OFFSET -8.77824 4.35084 1.2192
    CHANNELS 3 Zrotation Xrotation Yrotation
    JOINT rThigh
    {
      OFFSET 0 -1.70687 -2.19456
      CHANNELS 3 Zrotation Xrotation Yrotation
      JOINT rShin
      {
        OFFSET 0 -36.8199 0.73152
        CHANNELS 3 Zrotation Xrotation Yrotation
        JOINT rFoot
        {
          OFFSET 0.73152 -45.1104 -5.12064
          CHANNELS 3 Zrotation Xrotation Yrotation
          End Site
          {
            OFFSET -1.1221 -3.69964 12.103
          }
        }
      }
    }
  }
  JOINT lButtock
  {
    OFFSET 8.77824 4.35084 1.2192
    CHANNELS 3 Zrotation Xrotation Yrotation
    JOINT lThigh
    {
      OFFSET 0 -1.70687 -2.19456
      CHANNELS 3 Zrotation Xrotation Yrotation
      JOINT lShin
      {
        OFFSET 0 -36.8199 0.73152
        CHANNELS 3 Zrotation Xrotation Yrotation
        JOINT lFoot
        {
          OFFSET -0.73152 -45.1104 -5.12064
          CHANNELS 3 Zrotation Xrotation Yrotation
          End Site
          {
            OFFSET 1.1221 -3.69964 12.103
          }
        }
      }
    }
  }
}
MOTION
Frames:	4
Frame Time:	0.00833333
234.316 84.7658 39.575 0.0 0.0 0.0 -0.385197 -0.00168813 -0.0109959 -0.106234 -0.00256712 -0.0184049 4.01137e-15 0.0 6.21202e-17 1.20606e-14 3.18055e-15 1.61513e-16 -0.0 0.0 0.0 -0.0 0.0 0.0 1.98659e-15 1.16475e-18 9.93923e-17 4.41193e-14 -2.67117e-16 1.78906e-15 7.3108e-13 -2.15681e-13 1.27222e-14 8.34198e-12 2.27459e-13 1.04958e-13 1.96823e-11 2.65217e-14 2.67167e-13 3.39866e-11 4.77083e-14 4.46868e-13 1.96896e-11 2.82274e-14 2.54444e-13 7.73091 5.47488 0.417314 1.96822e-11 2.66371e-14 2.60805e-13 2.90554 0.965183 0.102902 1.96903e-11 2.67365e-14 2.61601e-13 10.2786 0.731801 0.0259123 1.96815e-11 2.62396e-14 2.63986e-13 2.22167 -0.733487 -0.20892 1.98923e-15 1.16475e-18 -4.96962e-17 3.97964e-14 -6.83322e-17 -1.98785e-16 7.26856e-13 2.19657e-13 -6.36111e-15 8.34445e-12 -2.14389e-13 1.30403e-13 1.9681e-11 1.3593e-14 2.54444e-13 3.3993e-11 2.54444e-14 4.45278e-13 1.96729e-11 1.63003e-14 2.67167e-13 -7.73091 5.47488 -0.417314 1.96804e-11 1.36168e-14 2.54444e-13 -2.90554 0.965183 -0.102902 1.9672e-11 1.38155e-14 2.59215e-13 -10.2786 0.731801 -0.0259123 1.96852e-11 1.59028e-14 2.57625e-13 -2.22167 -0.733487 0.20892 -2.03217e-16 0.0 -3.88251e-19 0.221652 -2.58356 -0.0280809 -0.00748959 -0.872631 -0.0651402 -0.513113 3.45577 0.129347 2.03217e-16 0.0 3.88251e-19 -0.807773 -4.07085 0.0653912 0.00325574 1.82139 0.0244318 0.517709 2.24911 -0.10518
230.981 83.1744 32.4296 -149.14 -81.3934 159.558 1.90365 -1.44588 -0.783954 0.161791 0.452347 -0.288711 -2.23851 -0.290672 -1.11858 3.06316 -3.75864 -1.19009 -0.0 0.0 0.0 -0.0 0.0 0.0 1.06959e-14 -8.84505e-14 -2.26638e-14 21.4952 5.65442 1.70995 -3.92781 -1.73031 6.19261 0.0153288 2.74735 0.384514 -1.42775e-10 5.48885e-10 7.1622e-10 -2.39869e-10 9.50976e-10 1.23827e-09 -1.42769e-10 5.48886e-10 7.16208e-10 7.73091 5.47488 0.417314 -1.42775e-10 5.48885e-10 7.16213e-10 2.90554 0.965183 0.102902 -1.42769e-10 5.48885e-10 7.16215e-10 10.2786 0.731801 0.0259123 -1.42776e-10 5.48885e-10 7.16218e-10 2.22167 -0.733487 -0.20892 1.07176e-14 -8.84505e-14 -2.2781e-14 -23.721 3.19749 -1.75101 3.84699 -1.67987 -6.08047 -0.1581 8.8399 -1.18963 1.113e-09 -3.48783e-10 -6.96467e-10 1.90252e-09 -6.02379e-10 -1.23017e-09 1.11299e-09 -3.48781e-10 -6.96457e-10 -7.73091 5.47488 -0.417314 1.113e-09 -3.48783e-10 -6.96469e-10 -2.90554 0.965183 -0.102902 1.11299e-09 -3.48782e-10 -6.96465e-10 -10.2786 0.731801 -0.0259123 1.113e-09 -3.48781e-10 -6.96469e-10 -2.22167 -0.733487 0.20892 -2.03217e-16 0.0 -3.88251e-19 2.10906 -6.57293 1.1114 -0.00504574 4.07525 0.0207304 -0.655095 0.8489 -2.46456 2.03217e-16 0.0 3.88251e-19 1.61409 -8.18629 0.301967 -0.00581676 7.31938 -0.0696219 0.668449 -0.711885 2.1715
230.917 83.1278 32.3416 -148.36 -81.3892 158.796 4.26696 -2.98151 -1.60391 0.447424 0.939209 -0.574908 -4.61905 -0.597973 -2.30214 6.13745 -7.71471 -2.46696 -0.0 0.0 0.0 -0.0 0.0 0.0 2.03787e-14 -1.8021e-13 -4.89321e-14 43.8485 11.6249 3.58273 -7.6783 -3.49371 12.7608 -0.00876105 5.65705 0.794759 -3.04923e-10 1.17119e-09 1.49488e-09 -5.12552e-10 2.02925e-09 2.58436e-09 -3.04919e-10 1.17119e-09 1.49487e-09 7.73091 5.47488 0.417314 -3.04924e-10 1.17119e-09 1.49487e-09 2.90554 0.965183 0.102902 -3.04918e-10 1.17119e-09 1.49488e-09 10.2786 0.731801 0.0259123 -3.04925e-10 1.17119e-09 1.49488e-09 2.22167 -0.733487 -0.20892 2.04232e-14 -1.8021e-13 -4.90128e-14 -48.5785 6.57396 -3.6311 7.52966 -3.39345 -12.5269 0.0928294 18.1671 -2.54451 2.31718e-09 -7.30015e-10 -1.45504e-09 3.96072e-09 -1.26089e-09 -2.57039e-09 2.31717e-09 -7.30015e-10 -1.45503e-09 -7.73091 5.47488 -0.417314 2.31718e-09 -7.30016e-10 -1.45504e-09 -2.90554 0.965183 -0.102902 2.31717e-09 -7.30014e-10 -1.45504e-09 -10.2786 0.731801 -0.0259123 2.31718e-09 -7.30013e-10 -1.45504e-09 -2.22167 -0.733487 0.20892 -2.03217e-16 0.0 -3.88251e-19 4.26837 -10.7838 2.34387 -0.0188413 9.29713 0.112724 -1.06104 -1.88973 -5.20759 2.03217e-16 0.0 3.88251e-19 4.19946 -12.4933 0.542295 0.00432664 13.0541 -0.171206 1.08365 -3.82686 4.5951
230.862 83.0792 32.2519 -147.923 -81.283 158.385 6.36421 -4.33108 -2.33579 0.710721 1.36205 -0.829531 -6.74955 -0.870686 -3.35608 8.71359 -11.2563 -3.63255 -0.0 0.0 0.0 -0.0 0.0 0.0 2.81146e-14 -2.65354e-13 -6.81901e-14 63.4356 16.9014 5.33599 -10.6797 -4.94886 18.6414 -0.0656135 8.24057 1.16424 -4.67689e-10 1.6466e-09 2.14812e-09 -7.8758e-10 2.85283e-09 3.71393e-09 -4.67686e-10 1.6466e-09 2.14812e-09 7.73091 5.47488 0.417314 -4.6769e-10 1.6466e-09 2.14812e-09 2.90554 0.965183 0.102902 -4.67686e-10 1.6466e-09 2.14812e-09 10.2786 0.731801 0.0259123 -4.67691e-10 1.6466e-09 2.14813e-09 2.22167 -0.733487 -0.20892 2.81744e-14 -2.65354e-13 -6.82437e-14 -70.5706 9.5564 -5.31888 10.4882 -4.81303 -18.3003 0.735707 26.4712 -3.94014 3.29964e-09 -1.04638e-09 -2.08991e-09 5.63957e-09 -1.80719e-09 -3.69141e-09 3.29963e-09 -1.04638e-09 -2.08991e-09 -7.73091 5.47488 -0.417314 3.29964e-09 -1.04638e-09 -2.08992e-09 -2.90554 0.965183 -0.102902 3.29963e-09 -1.04637e-09 -2.08991e-09 -10.2786 0.731801 -0.0259123 3.29964e-09 -1.04637e-09 -2.08992e-09 -2.22167 -0.733487 0.20892 -2.03217e-16 0.0 -3.88251e-19 6.37367 -14.5296 3.4798 -0.0455645 13.9709 0.198161 -1.64619 -4.32359 -7.67307 2.03217e-16 0.0 3.88251e-19 6.56386 -16.416 0.798783 0.0326164 18.3152 -0.269663 1.67759 -6.58957 6.76911
